<svg xmlns="http://www.w3.org/2000/svg" xmlns:xlink="http://www.w3.org/1999/xlink" version="1.1" style="" xml:space="preserve" width="32" height="8"><rect id="backgroundrect" width="100%" height="100%" x="0" y="0" fill="none" stroke="none" class="" style=""/>

<g class="currentLayer" style=""><title>Layer 1</title><g id="svg_1" class="selected" opacity="1" fill="#8b97c6" fill-opacity="1">
	<path d="M3.968,-7.105427357601002e-15 C1.775,-7.105427357601002e-15 0,1.7739999999999938 0,3.965999999999994 c0,2.192 1.7730000000000001,3.967 3.968,3.967 c2.189,0 3.966,-1.772 3.966,-3.967 C7.934,1.7739999999999938 6.157,-7.105427357601002e-15 3.968,-7.105427357601002e-15 zM16.233,-7.105427357601002e-15 c-2.188,0 -3.968,1.7730000000000001 -3.968,3.965 c0,2.192 1.778,3.967 3.968,3.967 s3.9699999999999998,-1.772 3.9699999999999998,-3.967 C20.201,1.7739999999999938 18.423000000000002,-7.105427357601002e-15 16.233,-7.105427357601002e-15 zM28.09,-7.105427357601002e-15 c-2.192,0 -3.9690000000000003,1.774 -3.9690000000000003,3.967 c0,2.19 1.774,3.965 3.9690000000000003,3.965 c2.188,0 3.965,-1.772 3.965,-3.965 S30.278,-7.105427357601002e-15 28.09,-7.105427357601002e-15 z" id="svg_2" opacity="1" fill="#8b97c6" fill-opacity="1"/>
</g></g></svg>